# xmcd CD database file
# Copyright (C) 1997 Ti Kan
#
# Track frame offsets:
#  150
#  19138
#  42895
#  56968
#  90008
#  107330
#  124545
#  141605
#
# Disc length: 2336 seconds
#
# Revision: 1
# Processed by: cddbd v1.4b41PL1 Copyright (c) Steve Scherf et al.
# Submitted via: CDWizzard Release:4.22
#
DISCID=62091e08
DTITLE=Ray Boltz - Watch The Lamb
DYEAR=1900
DGENRE=
TTITLE0=What Was I supposed To Be
TTITLE1=Touching Him
TTITLE2=It's Not Enough
TTITLE3=Watch The Lamb
TTITLE4=I've Come To Serve
TTITLE5=6 A.M. Blues
TTITLE6=Break The Yoke
TTITLE7=Behold
EXTD=
EXTT0=
EXTT1=
EXTT2=
EXTT3=
EXTT4=
EXTT5=
EXTT6=
EXTT7=
PLAYORDER=
